<?xml version="1.0" encoding="UTF-8"?>
<svg width="284px" height="284px" viewBox="0 0 284 284" version="1.1" xmlns="http://www.w3.org/2000/svg" xmlns:xlink="http://www.w3.org/1999/xlink">
    <!-- Generator: Sketch 46.2 (44496) - http://www.bohemiancoding.com/sketch -->
    <title>round-information-blue</title>
    <desc>Created with Sketch.</desc>
    <defs></defs>
    <g id="Page-2" stroke="none" stroke-width="1" fill="none" fill-rule="evenodd">
        <g id="Artboard-2" transform="translate(-2017.000000, -3691.000000)" fill="#1677CB">
            <path d="M2158.735,3691.455 C2080.465,3691.455 2017,3754.92 2017,3833.19 C2017,3911.475 2080.465,3975 2158.735,3975 C2237.02,3975 2300.545,3911.475 2300.545,3833.19 C2300.545,3754.92 2237.02,3691.455 2158.735,3691.455 Z M2188.27,3911.19 C2180.95,3914.055 2175.145,3916.23 2170.81,3917.745 C2166.475,3919.275 2161.435,3920.04 2155.69,3920.04 C2146.84,3920.04 2139.94,3917.865 2135.065,3913.53 C2130.145,3909.255 2127.745,3903.75 2127.745,3897.12 C2127.745,3894.54 2127.925,3891.915 2128.27,3889.215 C2128.63,3886.515 2129.215,3883.53 2130.025,3880.125 L2139.175,3847.845 C2139.985,3844.74 2140.69,3841.815 2141.215,3839.115 C2141.755,3836.295 2142.04,3833.79 2142.04,3831.495 C2142.04,3827.4 2141.17,3824.52 2139.46,3822.885 C2137.765,3821.25 2134.54,3820.485 2129.74,3820.485 C2127.4,3820.485 2124.94,3820.83 2122.465,3821.535 C2120.005,3822.3 2117.905,3823.005 2116.15,3823.65 L2118.55,3813.75 C2124.52,3811.29 2130.265,3809.235 2135.71,3807.48 C2141.17,3805.71 2146.315,3804.84 2151.19,3804.84 C2159.965,3804.84 2166.715,3807 2171.455,3811.23 C2176.195,3815.445 2178.61,3820.95 2178.61,3827.745 C2178.61,3829.155 2178.43,3831.615 2178.13,3835.125 C2177.785,3838.71 2177.2,3841.92 2176.315,3844.86 L2167.24,3877.02 C2166.475,3879.6 2165.83,3882.585 2165.185,3885.87 C2164.6,3889.155 2164.315,3891.675 2164.315,3893.37 C2164.315,3897.645 2165.305,3900.585 2167.18,3902.1 C2169.115,3903.69 2172.4,3904.44 2177.14,3904.44 C2179.36,3904.44 2181.835,3904.035 2184.64,3903.27 C2187.4,3902.52 2189.44,3901.815 2190.73,3901.23 L2188.27,3911.19 Z M2186.695,3780.645 C2182.42,3784.56 2177.32,3786.555 2171.335,3786.555 C2165.425,3786.555 2160.265,3784.56 2155.99,3780.645 C2151.775,3776.715 2149.6,3771.915 2149.6,3766.29 C2149.6,3760.71 2151.775,3755.91 2155.99,3751.92 C2160.265,3748.005 2165.425,3746.01 2171.335,3746.01 C2177.32,3746.01 2182.42,3748.005 2186.695,3751.92 C2190.91,3755.91 2193.025,3760.71 2193.025,3766.29 C2193.025,3771.915 2190.91,3776.715 2186.695,3780.645 Z" id="round-information-blue"></path>
        </g>
    </g>
</svg>